# xmcd
#
# Track frame offsets:
#	150
#	14102
#	35082
#	53887
#	70501
#	85650
#	97153
#	119108
#	134400
#	138715
#	152277
#	172622
#	182330
#	196942
#	205424
#	226282
#
# Disc length: 3254 seconds
#
# Revision: 1
# Processed by: cddbd v1.5.1PL0 Copyright (c) Steve Scherf et al.
# Submitted via: audiograbber 1.83.01
#
DISCID=dc0cb410
DTITLE=Tom Waits - Bone Machine
DYEAR=1992
DGENRE=
TTITLE0=The Earth Died Screaming
TTITLE1=Dirt In The Ground
TTITLE2=Such A Scream
TTITLE3=All Stripped Down
TTITLE4=Who Are You
TTITLE5=The Ocean Doesn't Want Me
TTITLE6=Jesus Gonna Be Here
TTITLE7=A Little Rain
TTITLE8=In The Colosseum
TTITLE9=Goin' Out West
TTITLE10=Murder In The Red Barn
TTITLE11=Black Wings
TTITLE12=Whistle Down The Wind
TTITLE13=I Don't Wanna Grow Up 
TTITLE14=Let Me Get Up On It
TTITLE15=That Feel
EXTD=
EXTT0=
EXTT1=
EXTT2=
EXTT3=
EXTT4=
EXTT5=
EXTT6=
EXTT7=
EXTT8=
EXTT9=
EXTT10=
EXTT11=
EXTT12=
EXTT13=
EXTT14=
EXTT15=
PLAYORDER=
